<svg width="42" height="42" viewBox="0 0 42 42" fill="none" xmlns="http://www.w3.org/2000/svg">
<path d="M35.7536 4.98962H6.2945C5.58604 4.98962 5.01367 5.562 5.01367 6.27046V35.7296C5.01367 36.438 5.58604 37.0104 6.2945 37.0104H35.7536C36.4621 37.0104 37.0345 36.438 37.0345 35.7296V6.27046C37.0345 5.562 36.4621 4.98962 35.7536 4.98962ZM32.0552 14.3357H29.4976C27.4923 14.3357 27.104 15.2883 27.104 16.6892V19.7752H31.8911L31.2667 24.6064H27.104V37.0104H22.1128V24.6104H17.9381V19.7752H22.1128V16.2129C22.1128 12.0782 24.6384 9.82476 28.3288 9.82476C30.0979 9.82476 31.6149 9.95685 32.0592 10.0169V14.3357H32.0552Z" fill="white"/>
</svg>
