<svg width="34" height="34" viewBox="0 0 34 34" fill="none" xmlns="http://www.w3.org/2000/svg">
<path d="M31.738 0.989624H2.27888C1.57042 0.989624 0.998047 1.562 0.998047 2.27046V31.7296C0.998047 32.438 1.57042 33.0104 2.27888 33.0104H31.738C32.4465 33.0104 33.0188 32.438 33.0188 31.7296V2.27046C33.0188 1.562 32.4465 0.989624 31.738 0.989624ZM10.4962 28.2753H5.74513V12.9934H10.4962V28.2753ZM8.12267 10.9041C7.57802 10.9041 7.04561 10.7425 6.59275 10.44C6.13989 10.1374 5.78693 9.70729 5.5785 9.2041C5.37007 8.70091 5.31554 8.14722 5.4218 7.61303C5.52805 7.07885 5.79032 6.58817 6.17545 6.20305C6.56057 5.81792 7.05125 5.55565 7.58543 5.4494C8.11962 5.34314 8.67331 5.39768 9.1765 5.6061C9.67969 5.81453 10.1098 6.16749 10.4124 6.62035C10.7149 7.07321 10.8765 7.60562 10.8765 8.15027C10.8725 9.67126 9.63965 10.9041 8.12267 10.9041ZM28.2838 28.2753H23.5367V20.8425C23.5367 19.0694 23.5047 16.7919 21.0671 16.7919C18.5975 16.7919 18.2172 18.7211 18.2172 20.7144V28.2753H13.4741V12.9934H18.0291V15.0828H18.0931C18.7255 13.882 20.2746 12.6132 22.5881 12.6132C27.3992 12.6132 28.2838 15.7792 28.2838 19.8939V28.2753Z" fill="white"/>
</svg>
