<svg width="46" height="47" viewBox="0 0 46 47" fill="none" xmlns="http://www.w3.org/2000/svg">
<path d="M23.0007 27.1366C27.2288 27.1366 30.6673 23.6981 30.6673 19.4699C30.6673 15.2417 27.2288 11.8032 23.0007 11.8032C18.7725 11.8032 15.334 15.2417 15.334 19.4699C15.334 23.6981 18.7725 27.1366 23.0007 27.1366ZM23.0007 15.6366C25.1147 15.6366 26.834 17.3558 26.834 19.4699C26.834 21.584 25.1147 23.3032 23.0007 23.3032C20.8866 23.3032 19.1673 21.584 19.1673 19.4699C19.1673 17.3558 20.8866 15.6366 23.0007 15.6366Z" fill="white"/>
<path d="M21.8879 42.1136C22.2122 42.3452 22.6009 42.4697 22.9995 42.4697C23.3981 42.4697 23.7868 42.3452 24.1112 42.1136C24.6939 41.7015 38.3884 31.8134 38.3329 19.4701C38.3329 11.0156 31.4539 4.13672 22.9995 4.13672C14.5451 4.13672 7.66618 11.0156 7.66618 19.4605C7.6106 31.8134 21.3052 41.7015 21.8879 42.1136ZM22.9995 7.97005C29.3418 7.97005 34.4995 13.1278 34.4995 19.4796C34.5398 27.9858 26.0892 35.6237 22.9995 38.1288C19.9118 35.6218 11.4593 27.982 11.4995 19.4701C11.4995 13.1278 16.6573 7.97005 22.9995 7.97005Z" fill="white"/>
</svg>
