<svg width="26" height="33" viewBox="0 0 26 33" fill="none" xmlns="http://www.w3.org/2000/svg">
<g clip-path="url(#clip0_67_7924)">
<path d="M12.9993 19.884C16.4922 19.884 19.3327 17.0435 19.3327 13.5506C19.3327 10.0578 16.4922 7.21729 12.9993 7.21729C9.50652 7.21729 6.66602 10.0578 6.66602 13.5506C6.66602 17.0435 9.50652 19.884 12.9993 19.884ZM12.9993 10.384C14.7458 10.384 16.166 11.8042 16.166 13.5506C16.166 15.297 14.7458 16.7173 12.9993 16.7173C11.2529 16.7173 9.83268 15.297 9.83268 13.5506C9.83268 11.8042 11.2529 10.384 12.9993 10.384Z" fill="#2091F9"/>
<path d="M11.7485 32.256C12.0164 32.4473 12.3375 32.5502 12.6668 32.5502C12.9961 32.5502 13.3172 32.4473 13.5851 32.256C14.0665 31.9155 25.3794 23.7471 25.3335 13.5505C25.3335 6.56637 19.6509 0.883789 12.6668 0.883789C5.68272 0.883789 0.000139393 6.56637 0.000139393 13.5425C-0.0457773 23.7471 11.2671 31.9155 11.7485 32.256ZM12.6668 4.05046C17.9061 4.05046 22.1668 8.31121 22.1668 13.5584C22.2001 20.5852 15.2191 26.8948 12.6668 28.9642C10.1161 26.8932 3.13356 20.582 3.16681 13.5505C3.16681 8.31121 7.42756 4.05046 12.6668 4.05046Z" fill="#2091F9"/>
</g>
<defs>
<clipPath id="clip0_67_7924">
<rect width="26" height="32" fill="white" transform="translate(0 0.717285)"/>
</clipPath>
</defs>
</svg>
