<svg width="34" height="28" viewBox="0 0 34 28" fill="none" xmlns="http://www.w3.org/2000/svg">
<path d="M33.6865 3.68535C32.4617 4.2137 31.1288 4.59394 29.7559 4.74204C31.1813 3.89523 32.2487 2.55742 32.7579 0.979599C31.4203 1.77527 29.9551 2.33321 28.4271 2.62867C27.7884 1.94593 27.016 1.40203 26.158 1.03086C25.3 0.659692 24.3747 0.469204 23.4398 0.471269C19.6574 0.471269 16.6154 3.53726 16.6154 7.2997C16.6154 7.82804 16.6794 8.35639 16.7835 8.86472C11.1198 8.56852 6.06855 5.86277 2.71037 1.72008C2.09848 2.76522 1.77782 3.95523 1.78177 5.16632C1.78177 7.53585 2.98655 9.62521 4.82374 10.854C3.74106 10.8114 2.68372 10.5138 1.73774 9.98544V10.0695C1.73774 13.3876 4.08326 16.1374 7.20929 16.7698C6.62234 16.9223 6.01855 17.0003 5.41212 17.002C4.96784 17.002 4.54756 16.958 4.12329 16.8979C4.98785 19.6037 7.50548 21.569 10.5034 21.633C8.1579 23.4702 5.22 24.5509 2.02993 24.5509C1.45756 24.5509 0.929215 24.5309 0.380859 24.4668C3.40682 26.4081 6.99715 27.5288 10.8637 27.5288C23.4158 27.5288 30.2843 17.1301 30.2843 8.10422C30.2843 7.80803 30.2843 7.51184 30.2642 7.21565C31.5931 6.24301 32.7579 5.03823 33.6865 3.68535Z" fill="white"/>
</svg>
