<svg width="45" height="42" viewBox="0 0 45 42" fill="none" xmlns="http://www.w3.org/2000/svg">
<path d="M18.2506 41.65C22.4039 40.0167 21.4939 35.5134 19.3939 32.6667C17.3173 29.75 14.4473 27.7434 11.5539 25.8067C9.48951 24.5055 7.64627 22.8829 6.09392 21C5.44059 20.23 4.11059 18.8067 5.46392 18.5267C6.84059 18.2467 9.22059 19.6 10.4339 20.1134C12.5573 21 14.6573 22.0267 16.6173 23.24L18.9739 19.2734C15.3339 16.87 10.6673 14.7467 6.32725 14.1167C3.85392 13.7434 1.24059 14.2567 0.400587 16.94C-0.34608 19.25 0.84392 21.5834 2.19725 23.4034C5.39392 27.6734 10.3639 29.7267 14.0739 33.4134C14.8673 34.1834 15.8239 35.0934 16.2906 36.1667C16.7806 37.1934 16.6639 37.2634 15.5673 37.2634C12.6739 37.2634 9.05725 35 6.70059 33.5067L4.34392 37.4734C7.91392 39.6667 13.8873 43.0967 18.2506 41.65ZM44.1273 5.25004C44.6406 4.7367 44.6406 3.8967 44.1273 3.4067L41.0939 0.373369C40.8495 0.137831 40.5233 0.00622559 40.1839 0.00622559C39.8445 0.00622559 39.5183 0.137831 39.2739 0.373369L36.8939 2.75337L41.7473 7.6067L44.1273 5.25004ZM21.1673 18.48V23.3334H26.0206L40.3706 8.98337L35.5173 4.13004L21.1673 18.48Z" fill="#2091F9"/>
</svg>
